<?xml version="1.0" ?><svg id="Layer_3" style="enable-background:new 0 0 64 64;" version="1.0" viewBox="0 0 64 64" xml:space="preserve" xmlns="http://www.w3.org/2000/svg" xmlns:xlink="http://www.w3.org/1999/xlink"><path d="M62.63,50.27C59.74,39.75,51.8,33.93,48.52,31.91c11.51-8.38,11.73-18.02,11.73-18.44c0-0.27-0.1-0.52-0.29-0.71  c-0.19-0.19-0.44-0.3-0.71-0.3h-9.64c-0.44,0-0.83,0.29-0.96,0.71c-3.14,10.16-9.51,12.98-12.1,13.72V13.46c0-0.55-0.45-1-1-1h-9.39  c-0.55,0-1,0.45-1,1V37.7c-3-1.47-10.5-6.87-11.35-24.28c-0.03-0.53-0.47-0.95-1-0.95H2.33c-0.55,0-1,0.45-1,1v3.83  c0,18.88,15.36,34.24,34.23,34.24c0.55,0,1-0.45,1-1V38.47c10.52,1.92,13.45,11.9,13.58,12.33c0.12,0.43,0.52,0.73,0.96,0.73h10.57  c0.31,0,0.61-0.15,0.79-0.39C62.66,50.89,62.72,50.57,62.63,50.27z M51.81,49.54c-0.99-2.68-5.18-11.9-16.13-13.22  c-0.28-0.04-0.57,0.05-0.78,0.25c-0.21,0.19-0.34,0.46-0.34,0.75v12.21C17.25,48.99,3.33,34.74,3.33,17.29v-2.83h8.55  c1.42,22.35,13.53,25.54,14.06,25.67c0.3,0.07,0.61,0,0.85-0.19s0.38-0.48,0.38-0.79v-24.7h7.39v13.67c0,0.29,0.12,0.56,0.34,0.75  c0.21,0.19,0.5,0.28,0.78,0.25c0.42-0.05,10.24-1.36,14.67-14.66h7.8c-0.42,2.69-2.43,10.26-12.05,16.7c-0.3,0.2-0.46,0.54-0.44,0.9  c0.02,0.36,0.23,0.67,0.55,0.83c0.11,0.05,10.37,5.27,14.12,16.64H51.81z"/></svg>